Coordinates
version=1
nRows=17
nColumns=36
inDegrees=yes

Units are S.I. units (second, meters, Newtons, ...)
If the header above contains a line with 'inDegrees', this indicates whether rotational values are in degrees (yes) or radians (no).

endheader
time	pelvis_tilt	pelvis_list	pelvis_rotation	pelvis_tx	pelvis_ty	pelvis_tz	hip_flexion_r	hip_adduction_r	hip_rotation_r	knee_angle_r	knee_angle_r_beta	ankle_angle_r	subtalar_angle_r	mtp_angle_r	hip_flexion_l	hip_adduction_l	hip_rotation_l	knee_angle_l	knee_angle_l_beta	ankle_angle_l	subtalar_angle_l	mtp_angle_l	lumbar_extension	lumbar_bending	lumbar_rotation	arm_flex_r	arm_add_r	arm_rot_r	elbow_flex_r	pro_sup_r	arm_flex_l	arm_add_l	arm_rot_l	elbow_flex_l	pro_sup_l
      0.00000000	     -5.84145770	     -1.34525902	     -3.87213910	     -0.07029838	      1.31680518	      0.05386282	     10.93420742	      2.57846423	     -6.65170574	      1.66241710	      0.02901465	      2.13643284	      2.57692333	     -6.36677654	      9.17844539	     -0.62471982	     -4.12941906	      6.00114130	      0.10473967	      6.59534030	      4.43007270	     -6.36677654	    -12.97494697	      0.56198193	     -0.79871202	     -0.34614568	    -11.08017574	     15.38926020	     35.21352836	     75.51632616	      1.75710737	    -10.54369598	     23.77583823	     28.73948383	     66.64974543
      0.01666670	     -6.07989724	     -0.54552380	     -3.28011901	     -0.07211937	      1.32076656	      0.05383225	     10.71228668	      1.81682376	     -6.61716136	      1.73782596	      0.03033078	      0.98748029	      5.66001205	     -6.42578236	      8.56221742	      0.26639934	     -3.82158965	      5.15932362	      0.09004718	      6.27877777	      6.86507668	     -6.42578236	    -11.81888438	     -0.75639428	     -0.87332321	      0.05713350	    -10.15666162	     15.57833058	     32.41451059	     75.71517505	      2.66152663	    -10.12182010	     24.70171759	     26.84623577	     67.20999831
      0.03333330	     -7.16797234	      0.23031987	     -3.92463237	     -0.07200134	      1.31789912	      0.05562417	     12.00286479	      1.46424538	     -6.84934627	      1.36284062	      0.02378606	      2.92684029	      6.05891786	     -6.68413500	      9.59937542	      0.96738722	     -4.56495567	      4.53190647	      0.07909669	      7.06421317	      7.82725711	     -6.68413500	    -10.60156475	     -1.83875870	     -0.27424340	     -0.27070041	     -9.68882641	     15.04816162	     32.33075957	     73.63137545	      2.32556176	    -10.20607666	     24.48107668	     27.16555277	     66.55548587
      0.05000000	     -7.55561066	      0.12226501	     -3.96444598	     -0.07137294	      1.31706026	      0.05551110	     12.16988202	      1.54573145	     -7.42609768	      1.25921367	      0.02197742	      4.00837936	      8.23162827	     -7.11405947	      9.78342290	      0.91690239	     -4.96787723	      3.98307590	      0.06951779	      8.11417776	      8.99960208	     -7.11405947	    -10.10762538	     -1.70271874	      0.11447922	     -0.80934378	     -9.13358923	     11.55276672	     32.44838763	     78.98542734	      2.58774796	     -9.87111146	     23.77111216	     26.34282801	     73.77157852
      0.06666670	     -7.95879225	      0.11056662	     -3.89881250	     -0.06947397	      1.31463932	      0.05675987	     12.23294090	      1.57594489	     -7.07472596	      1.13311804	      0.01977664	      4.97478042	      8.19963107	     -7.24453832	      9.82365724	      0.93774632	     -5.72929671	      3.33020466	      0.05812304	      8.63465921	      9.30350212	     -7.24453832	     -9.61637762	     -1.62786500	      0.17321937	     -1.25089405	     -8.70901932	     10.37639173	     32.88036658	     75.58484243	      2.25834407	     -9.64523091	     22.96932721	     26.57700267	     71.37516188
      0.08333330	     -8.44505440	      0.10548433	     -3.97135342	     -0.06981810	      1.31144581	      0.05681730	     12.59509225	      1.56770388	     -7.29695400	      1.20467459	      0.02102554	      5.91056859	      9.05613345	     -7.35494740	     10.36016954	      0.90423936	     -6.18568854	      3.05829707	      0.05337735	      9.98070335	     10.65845501	     -7.35494740	     -8.97765872	     -1.49239315	      0.50459280	     -1.64277863	     -8.62253850	      9.38865039	     33.56046766	     74.55641952	      2.18914459	     -9.44195729	     22.62674055	     26.34303579	     71.09750063
      0.10000000	     -8.64161132	      0.18027281	     -3.75195505	     -0.07069926	      1.31484214	      0.05687370	     12.71202281	      1.44474742	     -7.06841440	      1.13622241	      0.01983082	      6.14688907	      8.52768386	     -7.39948126	     10.58759308	      1.06357514	     -5.58221454	      2.93378369	      0.05120419	      9.79951261	      9.50947506	     -7.39948126	     -9.01130414	     -1.47674776	      0.51968732	     -1.64652036	     -8.35745003	      8.47702859	     34.00320352	     72.65316554	      2.04942515	     -9.39365907	     21.69621652	     26.98001931	     69.69046418
      0.11666670	     -8.77196630	      0.30438513	     -3.64100923	     -0.07265331	      1.31512354	      0.05748624	     12.93736511	      1.33829148	     -6.42603625	      1.02207876	      0.01783864	      6.07075676	      7.84924710	     -7.41967778	     10.97370913	      1.19073010	     -5.78528139	      3.29574334	      0.05752157	      9.87309090	      9.75121533	     -7.41967778	     -9.12071966	     -1.55167151	      0.82652819	     -1.59985504	     -8.26020661	      8.31639524	     34.30586031	     72.03003381	      2.21929366	     -9.43161374	     21.22478803	     27.45043805	     69.26767768
      0.13333330	     -9.11784279	      0.28076452	     -3.42096449	     -0.07190637	      1.31547317	      0.05777060	     13.33330847	      1.39881226	     -7.04135980	      1.08979506	      0.01902051	      5.34785257	      8.37752363	     -7.46469345	     11.74658907	      1.20710928	     -5.87672209	      3.52202234	      0.06147089	      9.94299848	     10.43810690	     -7.46469345	     -9.03250248	     -1.38964964	      0.72386968	     -1.63258783	     -7.98138878	      5.87778501	     34.61108700	     85.19703464	      1.99489188	     -9.18352934	     17.83078686	     27.82045530	     81.80376097
      0.15000000	     -9.35851129	      0.35126040	     -3.37099782	     -0.07220586	      1.30982517	      0.05810405	     13.78235062	      1.42033943	     -6.45788312	      1.23133613	      0.02149087	      5.20393791	      7.44713285	     -7.46899753	     12.38630261	      1.26061707	     -5.82610158	      4.04685529	      0.07063095	     10.12380581	     10.26268613	     -7.46899753	     -8.94477767	     -1.38360743	      0.87080277	     -1.51829516	     -8.08725072	      6.62062998	     34.85750417	     84.09111415	      1.87478433	     -9.29701433	     17.79248242	     28.46418703	     80.99134352
      0.16666670	     -9.38108984	      0.42843449	     -3.40423387	     -0.07061970	      1.31194832	      0.05858551	     13.99293982	      1.43652052	     -5.83564387	      1.38180352	      0.02411702	      5.17417874	      6.69475851	     -7.47456816	     12.65092317	      1.26657949	     -5.78260006	      4.49627354	      0.07847478	     10.14141499	     10.07520110	     -7.47456816	     -8.99743587	     -1.39167753	      0.99621241	     -1.52299087	     -8.11198101	      6.97126937	     35.14374619	     81.96783606	      1.67669098	     -9.40090579	     17.72029147	     29.28742922	     79.16945291
      0.18333330	     -9.60252754	      0.46463935	     -3.32294512	     -0.06971979	      1.31129575	      0.05925942	     14.32461349	      1.46413434	     -5.89662834	      1.57611768	      0.02750844	      4.74794866	      6.25260723	     -7.48693739	     13.21110111	      1.28872069	     -5.41178664	      4.99671591	      0.08720914	      9.98810056	      9.57036902	     -7.48693739	     -8.85278833	     -1.30624188	      0.77361527	     -1.32367338	     -8.22917571	      7.41317820	     35.06985239	     85.51114643	      1.38135595	     -9.43684787	     16.67620906	     29.82808033	     83.55109800
      0.20000000	     -9.66473199	      0.50223653	     -3.42850922	     -0.07206579	      1.31296804	      0.05866499	     14.65069343	      1.47753683	     -5.54798819	      1.60593217	      0.02802880	      4.32195898	      5.36469659	     -7.49010489	     13.36799492	      1.27396513	     -5.44130199	      5.19435871	      0.09065866	      9.54480336	      8.96912507	     -7.49010489	     -8.98836864	     -1.21382719	      0.86793021	     -1.24076168	     -8.37640705	      7.73174463	     35.52666880	     82.28746245	      1.14277327	     -9.47901890	     16.67857506	     30.64261554	     80.54308016
      0.21666670	     -9.97275576	      0.52285523	     -3.49863304	     -0.07173985	      1.31077226	      0.05938047	     15.14648808	      1.52990466	     -5.52166307	      1.61309473	      0.02815381	      3.96273836	      4.92299933	     -7.49535847	     13.88589052	      1.22667454	     -5.37278743	      5.51516995	      0.09625787	      9.24658784	      8.61570511	     -7.49535847	     -8.73522311	     -1.12062979	      0.86528103	     -1.11977573	     -8.63538919	      8.19918589	     35.58411756	     85.68929616	      0.90155549	     -9.57411018	     16.21212877	     31.10642879	     84.29138245
      0.23333330	    -10.14270011	      0.49655717	     -3.62360385	     -0.07114836	      1.30988161	      0.05996881	     15.49907881	      1.61719646	     -5.42331725	      1.81861090	      0.03174075	      4.03829873	      4.53667126	     -7.49673675	     14.19883443	      1.09116108	     -5.40544625	      5.89207277	      0.10283607	      9.16358771	      8.29639665	     -7.49673675	     -8.59095626	     -0.95495687	      0.89016854	     -0.90121306	     -8.99573034	      9.48582770	     35.68557906	     83.58170686	      0.68425781	     -9.68574979	     16.73834338	     31.44871414	     82.36555084
      0.25000000	    -10.17031805	      0.51616867	     -3.77397733	     -0.07175400	      1.30958215	      0.06015923	     15.76223008	      1.67555085	     -5.09012162	      2.00516747	      0.03499677	      3.74422538	      3.65041617	     -7.49733272	     14.46776420	      1.04283614	     -5.25530473	      6.24592999	      0.10901204	      8.90036906	      7.70009964	     -7.49733272	     -8.75151712	     -0.88847371	      0.99432239	     -0.81302457	     -9.12547757	      9.49030520	     36.12597211	     81.48070992	      0.44693988	     -9.71663286	     16.56406427	     32.10474767	     80.37850459
      0.26666670	    -10.38161515	      0.51495347	     -3.87756370	     -0.07180212	      1.30769398	      0.06146548	     16.33982923	      1.77523646	     -5.23377778	      2.42093641	      0.04225331	      3.75114988	      3.00350416	     -7.49873834	     15.13577613	      0.96130785	     -4.95806528	      6.69523870	      0.11685396	      9.19125714	      7.81170207	     -7.49873834	     -8.67051432	     -0.79676154	      0.96697558	     -0.57780785	     -9.29620161	      9.45459646	     36.17759079	     85.83045660	      0.19237653	     -9.68715292	     15.37528338	     32.31204143	     85.18123722
